<svg width="156" height="24" viewBox="0 0 156 24" fill="none" xmlns="http://www.w3.org/2000/svg">
<path d="M57.2655 24V0.863998H63.5695C65.8522 0.863998 67.7935 1.216 69.3935 1.92C71.0148 2.624 72.3162 3.552 73.2975 4.704C74.2788 5.856 74.9935 7.136 75.4415 8.544C75.9108 9.93067 76.1455 11.3173 76.1455 12.704C76.1455 14.4533 75.8362 16.0213 75.2175 17.408C74.6202 18.7947 73.7882 19.9787 72.7215 20.96C71.6548 21.9413 70.4282 22.6987 69.0415 23.232C67.6762 23.744 66.2255 24 64.6895 24H57.2655ZM60.3695 21.024H64.0815C65.3615 21.024 66.5348 20.832 67.6015 20.448C68.6895 20.064 69.6282 19.5093 70.4175 18.784C71.2282 18.0587 71.8575 17.1733 72.3055 16.128C72.7535 15.0613 72.9775 13.856 72.9775 12.512C72.9775 11.0827 72.7428 9.83467 72.2735 8.768C71.8042 7.68 71.1642 6.77333 70.3535 6.048C69.5428 5.32267 68.6255 4.77867 67.6015 4.416C66.5775 4.032 65.5002 3.84 64.3695 3.84H60.3695V21.024ZM99.4713 22.016C99.1513 22.2933 98.7033 22.5707 98.1273 22.848C97.5513 23.104 96.9113 23.3387 96.2073 23.552C95.5246 23.7653 94.8099 23.936 94.0633 24.064C93.3379 24.192 92.6553 24.256 92.0153 24.256C90.1593 24.256 88.4846 23.968 86.9913 23.392C85.5193 22.816 84.2499 22.016 83.1833 20.992C82.1379 19.968 81.3273 18.7627 80.7513 17.376C80.1966 15.9893 79.9193 14.4853 79.9193 12.864C79.9193 10.944 80.2286 9.22667 80.8473 7.712C81.4873 6.176 82.3513 4.88533 83.4393 3.84C84.5486 2.77333 85.8179 1.97333 87.2473 1.44C88.6766 0.885333 90.1913 0.608 91.7913 0.608C93.1353 0.608 94.3833 0.768 95.5353 1.088C96.6873 1.408 97.7006 1.81333 98.5753 2.304L97.5193 5.152C97.0926 4.896 96.5593 4.66133 95.9193 4.448C95.3006 4.23467 94.6606 4.064 93.9993 3.936C93.3379 3.78667 92.7193 3.712 92.1433 3.712C90.7779 3.712 89.5406 3.92533 88.4313 4.352C87.3219 4.75733 86.3726 5.35467 85.5833 6.144C84.7939 6.912 84.1859 7.85067 83.7593 8.96C83.3326 10.048 83.1193 11.2747 83.1193 12.64C83.1193 13.8987 83.3326 15.0507 83.7593 16.096C84.1859 17.1413 84.7939 18.048 85.5833 18.816C86.3726 19.5627 87.3113 20.1493 88.3993 20.576C89.5086 20.9813 90.7246 21.184 92.0473 21.184C92.8366 21.184 93.6153 21.1093 94.3833 20.96C95.1513 20.7893 95.8126 20.5547 96.3673 20.256V15.648H91.7593V12.672H99.4713V22.016Z" fill="white"/>
</svg>
